<svg id="visual" viewBox="0 0 960 540" width="960" height="540" xmlns="http://www.w3.org/2000/svg" xmlns:xlink="http://www.w3.org/1999/xlink" version="1.1"><rect x="0" y="0" width="960" height="540" fill="#002233"></rect><path d="M0 189L22.8 169.7C45.7 150.3 91.3 111.7 137 102.3C182.7 93 228.3 113 274 127.3C319.7 141.7 365.3 150.3 411.2 148C457 145.7 503 132.3 548.8 123.5C594.7 114.7 640.3 110.3 686 122.3C731.7 134.3 777.3 162.7 823 168.5C868.7 174.3 914.3 157.7 937.2 149.3L960 141L960 0L937.2 0C914.3 0 868.7 0 823 0C777.3 0 731.7 0 686 0C640.3 0 594.7 0 548.8 0C503 0 457 0 411.2 0C365.3 0 319.7 0 274 0C228.3 0 182.7 0 137 0C91.3 0 45.7 0 22.8 0L0 0Z" fill="#F8974A" stroke-linecap="round" stroke-linejoin="miter"></path></svg>